<?xml version="1.0" encoding="utf-8"?>
<!DOCTYPE svg PUBLIC "-//W3C//DTD SVG 1.1//EN" "http://www.w3.org/Graphics/SVG/1.1/DTD/svg11.dtd">


<svg t="1664961940950" class="icon" viewBox="0 0 1024 1024" version="1.1" xmlns="http://www.w3.org/2000/svg" p-id="6308" width="128" height="128"><path d="M241.7 533.7l55-111.5c5-10.2 15.4-16.7 26.8-16.7h0.1c11.4 0 21.8 6.4 26.8 16.6l64.7 129.6 34 67.2 103.4-258.4c4.6-11.4 15.6-18.8 27.8-18.9 12.3 0 23.3 7.5 27.8 18.8l69.5 173h115.9c25.7-34.4 40.1-79.4 37.3-125.3-5.6-90-78.6-167.8-168.6-173.5C603.8 231 551 265 515.6 305l-0.3-0.3-1.2 1.2c-34.2-45.1-89.2-73.6-150.7-71.3-93.7 3.5-170 79.8-173.5 173.5-1.8 48.1 15.3 92.2 44.4 125.6h7.4z" fill="#F4B3BA" p-id="6309"></path><path d="M449.2 626.9c-3 0-5.8-1.7-7.1-4.4l-34-67.2-64.7-129.7c-3.7-7.5-11.3-12.2-19.7-12.2-8.5 0-16 4.7-19.7 12.3l-55 111.5c-1.3 2.7-4.1 4.5-7.2 4.5h-7.2c-2.3 0-4.5-1-6-2.7-31.7-36.3-48.2-82.8-46.4-131.1 3.6-97.9 83.2-177.5 181.1-181.1 58.3-2.2 114.3 22.9 151.6 67.3 43.2-46 96.8-70.5 147.9-67.3 92.8 5.8 170.1 85.3 176.1 180.9 2.9 46.2-11.3 93.8-38.8 130.6-1.5 2-3.9 3.2-6.4 3.2H677.8c-3.3 0-6.2-2-7.4-5l-69.5-173c-3.4-8.4-11.4-13.8-20.4-13.8-9.1 0-17.1 5.4-20.4 13.8L456.6 621.8c-1.2 2.9-3.9 4.9-7.1 5-0.1 0.1-0.2 0.1-0.3 0.1zM323.5 397.4c14.6 0 27.6 8.1 34.1 21L422.3 548l26 51.3 96.8-241.9c5.8-14.5 19.6-23.9 35.3-23.9 15.6 0 29.5 9.4 35.3 23.8l67.4 168h106.4c23.8-33.3 35.9-75.7 33.3-116.8-5.5-87.8-76.2-160.7-161.1-166-68.6-4.3-120.9 45.9-140.2 67.7-0.7 0.8-1.5 1.4-2.4 1.9-1.6 1.3-3.5 1.9-5.6 1.8-2.3-0.2-4.4-1.3-5.8-3.1-34-44.7-87.8-70.2-144-68.1-89.5 3.3-162.3 76.1-165.7 165.7-1.6 42.5 12.3 83.6 39.2 116.2l52.3-106c6.5-13 19.5-21.1 34-21.2z m-81.8 136.3z" fill="#8E7A8F" p-id="6310"></path><path d="M657.4 593.5c-12.3 0-23.3-7.5-27.8-18.8l-49.1-122.3-100.3 250.4c-4.4 10.9-14.8 18.3-26.5 18.8h-1.3c-11.3 0-21.6-6.3-26.8-16.5l-64-126.5s-0.1-0.1-0.1-0.2l-37.7-75.6-36.5 74c-1 2-2.2 3.9-3.6 5.6l187.9 189c24.2 24.2 63.4 24.2 87.5 0l177-178-78.7 0.1z" fill="#F4B3BA" p-id="6311"></path><path d="M515.3 797.5c-17.9 0-35.8-6.8-49.4-20.4L278 588.1c-2.9-2.9-3.1-7.5-0.6-10.7 1-1.3 1.9-2.6 2.6-4.1l36.5-74c1.3-2.7 4.1-4.5 7.2-4.5 3 0 5.8 1.7 7.2 4.4l37.7 75.6 0.1 0.1 64 126.5c3.9 7.7 11.9 12.4 20.6 12 8.6-0.4 16.3-5.8 19.5-13.8L573 449.3c1.2-3 4.2-5 7.4-5 3.3 0 6.2 2 7.4 5L637 571.7c3.4 8.4 11.4 13.8 20.4 13.8h78.7c3.2 0 6.1 1.9 7.4 4.9 1.2 3 0.6 6.4-1.7 8.7l-177 178c-13.7 13.6-31.6 20.4-49.5 20.4z m-76.5-70.4l38.5 38.7c21 21 55.2 21 76.2 0l163.4-164.3h-59.5c-15.6 0-29.4-9.4-35.3-23.8l-41.7-103.8-92.8 231.9c-5.5 13.8-18.7 23.2-33.6 23.8-5.3 0.2-10.5-0.6-15.2-2.5zM293.9 581.4l122.4 123.1-62-122.5-30.5-61.2-29.4 59.6c-0.2 0.4-0.3 0.7-0.5 1z" fill="#8E7A8F" p-id="6312"></path><path d="M452.4 706.6c-5.6 0-10.8-3.2-13.4-8.2l-64-126.5-51.3-102.7-49.9 101.1c-2.5 5.1-7.7 8.4-13.4 8.4l-192.7 0.2c-8.3 0-15-6.7-15-15s6.7-15 15-15l183.4-0.2 59.2-119.9c2.5-5.1 7.7-8.3 13.4-8.4 5.7 0 10.9 3.2 13.5 8.3l64.7 129.7 49 96.8L566.6 366c2.3-5.7 7.8-9.4 13.9-9.4 6.1 0 11.6 3.7 13.9 9.4l73.2 182.4h288.9c8.3 0 15 6.7 15 15s-6.7 15-15 15h-299c-6.1 0-11.6-3.7-13.9-9.4l-63.2-157-114.1 285.2c-2.2 5.5-7.4 9.2-13.3 9.4h-0.6z" fill="#8E7A8F" p-id="6313"></path></svg>